<svg xmlns="http://www.w3.org/2000/svg" width="21.741" height="21.346" viewBox="0 0 21.741 21.346"><defs><style>.a{fill:#fff;}</style></defs><g transform="translate(0 -0.5)"><path class="a" d="M19.37,3.662V.5H0V19.079H2.767v2.767H21.741V3.662ZM.791,18.288v-17H18.579V3.662H2.767V18.288Zm20.16,2.767H3.558V4.453H20.951Z"/><path class="a" d="M28.092,23.848H24.139V19.9a.4.4,0,0,0-.791,0v3.953H19.4a.4.4,0,0,0,0,.791h3.953v3.953a.4.4,0,0,0,.791,0V24.639h3.953a.4.4,0,0,0,0-.791Z" transform="translate(-11.489 -11.489)"/></g></svg>