<svg xmlns="http://www.w3.org/2000/svg" width="101.447" height="81.157" viewBox="0 0 101.447 81.157"><defs><style>.a{fill:#fff;}</style></defs><path class="a" d="M78.621,35.506a22.825,22.825,0,1,0,22.825,22.825A22.813,22.813,0,0,0,78.621,35.506ZM88.766,59.329a1.544,1.544,0,0,1-1.539,1.539h-9.6a1.544,1.544,0,0,1-1.539-1.539V47.192a1.544,1.544,0,0,1,1.539-1.539h1.992a1.544,1.544,0,0,1,1.539,1.539v8.6h6.069a1.544,1.544,0,0,1,1.539,1.539ZM78.621,30.434c.856,0,1.7.052,2.536.128V22.825a7.8,7.8,0,0,0-7.608-7.608H60.868V7.608A7.8,7.8,0,0,0,53.259,0H27.9a7.8,7.8,0,0,0-7.608,7.608v7.608H7.608A7.8,7.8,0,0,0,0,22.825V35.506H62.631A27.727,27.727,0,0,1,78.621,30.434Zm-27.9-15.217H30.434V10.145H50.723ZM51.8,50.723H32.97a2.535,2.535,0,0,1-2.536-2.536V40.579H0V63.4a7.8,7.8,0,0,0,7.608,7.608H53.8a27.524,27.524,0,0,1-2-20.289Z"/></svg>