<svg xmlns="http://www.w3.org/2000/svg" width="69.367" height="70.045" viewBox="0 0 69.367 70.045"><defs><style>.a{fill:#fff;}</style></defs><path class="a" d="M67.71,13.291a6.807,6.807,0,0,0-5.212-2.3H12.641l-.5-3.762C11.6,3.175,8.777,0,5.715,0H2.052a2.052,2.052,0,0,0,0,4.1H5.715C6.374,4.1,7.768,5.5,8.071,7.77l5.874,44.057a8.3,8.3,0,0,0,2.809,5.12,8.48,8.48,0,0,0,3.939,1.96,7.548,7.548,0,1,0,13.349.149H44.8a7.547,7.547,0,1,0,13.425,0H63.6a2.052,2.052,0,0,0,0-4.1H22.2a4.4,4.4,0,0,1-4.188-3.667l-.429-3.22H58.1a8.519,8.519,0,0,0,8.255-7.228L69.3,18.761a6.808,6.808,0,0,0-1.591-5.47ZM30.772,62.5a3.443,3.443,0,1,1-3.443-3.443A3.447,3.447,0,0,1,30.772,62.5Zm24.178,0a3.443,3.443,0,1,1-3.443-3.443A3.447,3.447,0,0,1,54.951,62.5Zm9.671-46.5a2.758,2.758,0,0,1,.611,2.224L64,27.475H50.035l.825-12.381H62.5a2.76,2.76,0,0,1,2.124.9ZM35.479,43.96l-.826-12.381h11L44.823,43.96Zm-1.1-16.485-.825-12.381H46.747l-.825,12.381ZM29.441,15.094l.825,12.381H14.839L13.188,15.094ZM15.386,31.579H30.54l.826,12.381H17.037ZM58.1,43.96H48.936l.826-12.381H63.451l-1.162,8.715A4.4,4.4,0,0,1,58.1,43.96Zm0,0" transform="translate(0)"/></svg>