<svg xmlns="http://www.w3.org/2000/svg" width="20.367" height="20.367" viewBox="0 0 20.367 20.367"><defs><style>.a{fill:#fff;}</style></defs><path class="a" d="M28.367,18.164a10.184,10.184,0,0,1-16.574,7.948.985.985,0,0,1-.076-1.462l.463-.463a.987.987,0,0,1,1.31-.081,7.556,7.556,0,1,0-.482-11.427l2.084,2.084a.657.657,0,0,1-.465,1.122H8.657A.657.657,0,0,1,8,15.227V9.258a.657.657,0,0,1,1.122-.465l2.027,2.027a10.183,10.183,0,0,1,17.218,7.344ZM20.938,21.4l.4-.519a.985.985,0,0,0-.173-1.383L19.5,18.2V13.913a.985.985,0,0,0-.985-.985h-.657a.985.985,0,0,0-.985.985v5.57l2.686,2.089A.986.986,0,0,0,20.938,21.4Z" transform="translate(-8 -8)"/></svg>