<svg xmlns="http://www.w3.org/2000/svg" width="24.544" height="19.086" viewBox="0 0 24.544 19.086"><defs><style>.a{fill:#fff;}</style></defs><path class="a" d="M11.931,37l-7.855,6.47v6.983a.682.682,0,0,0,.682.682l4.775-.012a.682.682,0,0,0,.678-.682V46.364a.682.682,0,0,1,.682-.682h2.727a.682.682,0,0,1,.682.682v4.075a.682.682,0,0,0,.682.684l4.773.013a.682.682,0,0,0,.682-.682V43.467L12.583,37a.519.519,0,0,0-.652,0ZM24.34,41.4l-3.562-2.936v-5.9a.511.511,0,0,0-.511-.511H17.88a.511.511,0,0,0-.511.511v3.094l-3.815-3.138a2.045,2.045,0,0,0-2.6,0L.17,41.4a.511.511,0,0,0-.068.72L1.189,43.44a.511.511,0,0,0,.72.069l10.022-8.255a.519.519,0,0,1,.652,0l10.022,8.255a.511.511,0,0,0,.72-.068l1.086-1.321a.511.511,0,0,0-.072-.721Z" transform="translate(0.015 -32.05)"/></svg>