<svg xmlns="http://www.w3.org/2000/svg" width="32.979" height="33.002" viewBox="0 0 32.979 33.002"><defs><style>.a{fill:#373333;}.b{fill:none;stroke:#000;stroke-miterlimit:10;}</style></defs><g transform="translate(-65.5 -37.8)"><g transform="translate(66 38.3)"><path class="a" d="M77.393,63.037l.089.089.1.124.076.151.062.144.027.144V64.1l-.048.144-.055.124-.082.158-.144.165-.089.1-.536.6-2.817,3.175-.165.179-.124.158-.165.192-.158.179-.179.179-.151.137-.227.137-.227.131-.22.1-.261.117-.261.062-.158.055-.179.034-.172.041-.364.021h-.673l-.357-.034-.33-.069-.364-.082-.364-.124-.254-.11-.22-.117-.234-.137-.192-.117-.227-.179-.158-.137-.227-.2-.186-.186-.206-.247-.158-.213-.117-.192-.165-.268-.117-.227-.089-.192L66.24,67.2l-.089-.261-.034-.172-.041-.165-.048-.247L66,65.978V42.5l.055-.337.055-.33.062-.227.076-.22.082-.192.055-.1.055-.11.048-.124.069-.117.069-.137.089-.144.069-.1.089-.151.11-.124.089-.131.1-.124.165-.158.192-.192.192-.158.234-.172.3-.192.192-.1s.24-.124.247-.124.206-.076.206-.076l.254-.089.254-.082.179-.048.227-.041.24-.034.11-.014.151-.014.22.014.192-.014H71.2l.234.014.192.027.227.062.2.076.172.062.234.1.158.089.186.11.24.151.179.151.2.186.261.234.989.983,1.3,1.292L77.3,43.165l1.3,1.306,1.189,1.168,1.237,1.223,1.257,1.257,1.484,1.464.969.962,1.416,1.395,1.34,1.34,1.319,1.306,1.168,1.168.076.069.055.062.076.089.055.089.027.069.048.1.027.082.021.069v.076l.014.089.014.082v.144l-.021.1-.027.076-.027.076-.034.082-.062.11-.048.082-.062.069-.062.076-.055.055-.069.055-.082.062-.089.048-.076.034-.076.027-.089.034-.1.021-.131.007h-.137L89,57.753l-.1-.021-.1-.027-.1-.048-.089-.062-.089-.069-.082-.069-.144-.131-.481-.495-1.684-1.663-1.951-1.938-1.594-1.6L80.76,49.823,76.2,45.309,74.438,43.57l-1.409-1.395-.77-.756-.131-.137-.062-.055-.076-.055-.124-.062-.117-.076-.1-.069-.117-.076-.234-.117-.158-.055-.2-.069-.192-.021h-.371c-.014,0-.2.027-.2.027l-.076.021-.213.055-.234.082-.192.082-.124.076-.089.069-.089.069-.076.062-.11.11-.131.144-.117.124-.041.089-.055.1-.048.089-.069.124-.041.1-.034.11-.034.137-.007.1-.027.2v.543l.007.481v.708l-.007.639.014,1.828-.007,6.322v6.514l-.007,3.12v3l.007.165.007.1.027.144.027.137.041.131.055.131.048.124.076.131.076.124.062.089.1.137.082.069.124.124.1.1.11.082.137.082.158.089.131.055.186.055.22.055.158.021.158.014h.192l.186-.007.2-.034.22-.076.192-.089.2-.117.192-.144.165-.131.289-.3.447-.5.639-.715,2.02-2.288.261-.3.151-.151.089-.1.11-.062.089-.055.117-.055.124-.041.124-.041.158.007.206.007c.014,0,.247.076.247.076l.172.1.076.055.041.021L81,59.56l2.577,2.549,5.016,5.016,2.213,2.164a.819.819,0,0,0,.131.11,1.505,1.505,0,0,1,.179.158l.206.151.316.2.261.124.282.11.213.076.275.062h.5l.275.021.323-.027.3-.034.33-.076.24-.069.364-.1.289-.124.254-.124.2-.1.227-.158.268-.192.241-.213.192-.192.22-.234.192-.234.158-.241.151-.261.131-.234.124-.261.089-.241.069-.24.062-.24.055-.3.048-.309a1.1,1.1,0,0,1,0-.261,2.658,2.658,0,0,0,0-.405l.007-.577V42.636l-.041-.364-.062-.412-.1-.378-.11-.289-.165-.357-.151-.268-.247-.371-.247-.316-.261-.261-.261-.247-.35-.261-.323-.192-.289-.158-.3-.124-.316-.117-.33-.076s-.213-.069-.227-.069-.33-.034-.33-.034L93.6,38.3h-.914s-.268.062-.289.062-.186.055-.247.062-.405.144-.405.144l-.33.192-.316.227-.385.268-.687.639-2.783,2.762-1.223,1.189-.158.172-.144.137-.1.137-.11.206-.062.186-.021.165v.172l.048.227.089.247.158.192.165.137.158.1.192.089.22.055.289-.014.275-.069.206-.131.261-.213.454-.467.378-.392.35-.323.364-.357,2.625-2.577.33-.309.309-.206.261-.158.33-.124.247-.062.282-.021h.247l.261.027.261.076.22.089.227.131.227.151.144.124.124.144.11.131.137.2.124.234.089.24.055.227.027.337-.007.316-.014.3.014.6v2.219l-.007,3V51.85l.014,7.51v6.493l-.027.213-.048.213-.082.234-.089.186-.124.192-.131.186-.151.165-.165.144-.137.11-.1.076-.172.089-.2.089-.192.048-.213.041H93.6l-.254-.021-.282-.041-.22-.048-.179-.069-.179-.1-.192-.1-.268-.172-.282-.268-.268-.261-.179-.192-2.309-2.274L86.7,62.027,84.45,59.8,82.7,58.083l-6.356-6.1-.4-.35-.371-.3-.412-.3-.179-.144-.158-.076-.213-.014-.179.027-.179.082-.124.089-.117.131-.089.11-.089.124-.055.137-.062.137-.028.213-.021.2.007.151.055.165.1.158.076.11.186.227.144.158.508.557,1.044,1.065,1.979,1.821.3.282,2.852,2.838.021.014-3.607,3.4.021.021Z" transform="translate(-66 -38.3)"/><path class="b" d="M77.393,63.037l.089.089.1.124.076.151.062.144.027.144V64.1l-.048.144-.055.124-.082.158-.144.165-.089.1-.536.6-2.817,3.175-.165.179-.124.158-.165.192-.158.179-.179.179-.151.137-.227.137-.227.131-.22.1-.261.117-.261.062-.158.055-.179.034-.172.041-.364.021h-.673l-.357-.034-.33-.069-.364-.082-.364-.124-.254-.11-.22-.117-.234-.137-.192-.117-.227-.179-.158-.137-.227-.2-.186-.186-.206-.247-.158-.213-.117-.192-.165-.268-.117-.227-.089-.192L66.24,67.2l-.089-.261-.034-.172-.041-.165-.048-.247L66,65.978V42.5l.055-.337.055-.33.062-.227.076-.22.082-.192.055-.1.055-.11.048-.124.069-.117.069-.137.089-.144.069-.1.089-.151.11-.124.089-.131.1-.124.165-.158.192-.192.192-.158.234-.172.3-.192.192-.1s.24-.124.247-.124.206-.076.206-.076l.254-.089.254-.082.179-.048.227-.041.24-.034.11-.014.151-.014.22.014.192-.014H71.2l.234.014.192.027.227.062.2.076.172.062.234.1.158.089.186.11.24.151.179.151.2.186.261.234.989.983,1.3,1.292L77.3,43.165l1.3,1.306,1.189,1.168,1.237,1.223,1.257,1.257,1.484,1.464.969.962,1.416,1.395,1.34,1.34,1.319,1.306,1.168,1.168.076.069.055.062.076.089.055.089.027.069.048.1.027.082.021.069v.076l.014.089.014.082v.144l-.021.1-.027.076-.027.076-.034.082-.062.11-.048.082-.062.069-.062.076-.055.055-.069.055-.082.062-.089.048-.076.034-.076.027-.089.034-.1.021-.131.007h-.137L89,57.753l-.1-.021-.1-.027-.1-.048-.089-.062-.089-.069-.082-.069-.144-.131-.481-.495-1.684-1.663-1.951-1.938-1.594-1.6L80.76,49.823,76.2,45.309,74.438,43.57l-1.409-1.395-.77-.756-.131-.137-.062-.055-.076-.055-.124-.062-.117-.076-.1-.069-.117-.076-.234-.117-.158-.055-.2-.069-.192-.021h-.371c-.014,0-.2.027-.2.027l-.076.021-.213.055-.234.082-.192.082-.124.076-.089.069-.089.069-.076.062-.11.11-.131.144-.117.124-.041.089-.055.1-.048.089-.069.124-.041.1-.034.11-.034.137-.007.1-.027.2v.543l.007.481v.708l-.007.639.014,1.828-.007,6.322v6.514l-.007,3.12v3l.007.165.007.1.027.144.027.137.041.131.055.131.048.124.076.131.076.124.062.089.1.137.082.069.124.124.1.1.11.082.137.082.158.089.131.055.186.055.22.055.158.021.158.014h.192l.186-.007.2-.034.22-.076.192-.089.2-.117.192-.144.165-.131.289-.3.447-.5.639-.715,2.02-2.288.261-.3.151-.151.089-.1.11-.062.089-.055.117-.055.124-.041.124-.041.158.007.206.007c.014,0,.247.076.247.076l.172.1.076.055.041.021L81,59.56l2.577,2.549,5.016,5.016,2.213,2.164a.819.819,0,0,0,.131.11,1.505,1.505,0,0,1,.179.158l.206.151.316.2.261.124.282.11.213.076.275.062h.5l.275.021.323-.027.3-.034.33-.076.24-.069.364-.1.289-.124.254-.124.2-.1.227-.158.268-.192.241-.213.192-.192.22-.234.192-.234.158-.241.151-.261.131-.234.124-.261.089-.241.069-.24.062-.24.055-.3.048-.309a1.1,1.1,0,0,1,0-.261,2.658,2.658,0,0,0,0-.405l.007-.577V42.636l-.041-.364-.062-.412-.1-.378-.11-.289-.165-.357-.151-.268-.247-.371-.247-.316-.261-.261-.261-.247-.35-.261-.323-.192-.289-.158-.3-.124-.316-.117-.33-.076s-.213-.069-.227-.069-.33-.034-.33-.034L93.6,38.3h-.914s-.268.062-.289.062-.186.055-.247.062-.405.144-.405.144l-.33.192-.316.227-.385.268-.687.639-2.783,2.762-1.223,1.189-.158.172-.144.137-.1.137-.11.206-.062.186-.021.165v.172l.048.227.089.247.158.192.165.137.158.1.192.089.22.055.289-.014.275-.069.206-.131.261-.213.454-.467.378-.392.35-.323.364-.357,2.625-2.577.33-.309.309-.206.261-.158.33-.124.247-.062.282-.021h.247l.261.027.261.076.22.089.227.131.227.151.144.124.124.144.11.131.137.2.124.234.089.24.055.227.027.337-.007.316-.014.3.014.6v2.219l-.007,3V51.85l.014,7.51v6.493l-.027.213-.048.213-.082.234-.089.186-.124.192-.131.186-.151.165-.165.144-.137.11-.1.076-.172.089-.2.089-.192.048-.213.041H93.6l-.254-.021-.282-.041-.22-.048-.179-.069-.179-.1-.192-.1-.268-.172-.282-.268-.268-.261-.179-.192-2.309-2.274L86.7,62.027,84.45,59.8,82.7,58.083l-6.356-6.1-.4-.35-.371-.3-.412-.3-.179-.144-.158-.076-.213-.014-.179.027-.179.082-.124.089-.117.131-.089.11-.089.124-.055.137-.062.137-.028.213-.021.2.007.151.055.165.1.158.076.11.186.227.144.158.508.557,1.044,1.065,1.979,1.821.3.282,2.852,2.838.021.014-3.607,3.4.021.021Z" transform="translate(-66 -38.3)"/></g></g></svg>