<svg xmlns="http://www.w3.org/2000/svg" width="105.519" height="105.519" viewBox="0 0 105.519 105.519"><defs><style>.a,.b,.e{fill:none;}.a,.b{stroke:#fff;}.a{stroke-width:4px;stroke-dasharray:122 20;}.b{stroke-width:3px;}.c{fill:#fff;}.d{stroke:none;}</style></defs><g transform="translate(-1336.24 -343.24)"><g class="a" transform="translate(1441.76 360.413) rotate(101)"><circle class="d" cx="45" cy="45" r="45"/><circle class="e" cx="45" cy="45" r="43"/></g><g transform="translate(375.275 -122.27) rotate(8)"><line class="b" x2="8" y2="7" transform="translate(1026.5 364.5)"/><path class="b" d="M8,0,7.5.438,7.333.583,0,7" transform="matrix(0.998, -0.07, 0.07, 0.998, 1032.266, 364.788)"/></g><g transform="translate(2322.759 1044.648) rotate(-164)"><line class="b" x2="8" y2="7" transform="translate(1026.5 364.5)"/><path class="b" d="M8,0,7.5.438,7.333.583,0,7" transform="matrix(0.998, -0.07, 0.07, 0.998, 1032.266, 364.788)"/></g><path class="c" d="M48.805,9.58a4.907,4.907,0,0,0-3.757-1.658H9.112L8.75,5.21C8.36,2.288,6.326,0,4.12,0H1.479a1.479,1.479,0,0,0,0,2.958H4.12c.475,0,1.48,1,1.7,2.642l4.234,31.756a5.981,5.981,0,0,0,2.025,3.69,6.113,6.113,0,0,0,2.839,1.413,5.441,5.441,0,1,0,9.622.107h7.751a5.44,5.44,0,1,0,9.677,0h3.875a1.479,1.479,0,0,0,0-2.958H16a3.175,3.175,0,0,1-3.018-2.643l-.309-2.321H41.88a6.141,6.141,0,0,0,5.95-5.21l2.122-15.912A4.907,4.907,0,0,0,48.805,9.58ZM22.181,45.048A2.482,2.482,0,1,1,19.7,42.567,2.484,2.484,0,0,1,22.181,45.048Zm17.428,0a2.482,2.482,0,1,1-2.482-2.481A2.484,2.484,0,0,1,39.608,45.048Zm6.97-33.52a1.988,1.988,0,0,1,.44,1.6L46.13,19.8H36.065l.595-8.924h8.388a1.989,1.989,0,0,1,1.531.649ZM25.573,31.687l-.6-8.924H32.9l-.6,8.924ZM24.781,19.8l-.595-8.924H33.7L33.1,19.8Zm-3.56-8.924.595,8.924H10.7L9.506,10.88ZM11.09,22.762H22.013l.6,8.924H12.28ZM41.88,31.687H35.273l.6-8.924h9.867L44.9,29.044a3.175,3.175,0,0,1-3.018,2.642Zm0,0" transform="translate(1363 374)"/></g></svg>