<svg xmlns="http://www.w3.org/2000/svg" width="21.741" height="21.741" viewBox="0 0 21.741 21.741"><defs><style>.a{fill:#fff;}</style></defs><g transform="translate(1 1)"><g transform="translate(-1 -1)"><path class="a" d="M9.871-1A10.871,10.871,0,1,0,20.741,9.871,10.871,10.871,0,0,0,9.871-1Zm0,19.93A9.059,9.059,0,1,1,18.93,9.871,9.059,9.059,0,0,1,9.871,18.93Z" transform="translate(1 1)"/><path class="a" d="M117.48,111.1h-4.529v-4.529a.906.906,0,1,0-1.812,0V111.1h-4.528a.906.906,0,1,0,0,1.812h4.528v4.529a.906.906,0,0,0,1.812,0v-4.529h4.529a.906.906,0,0,0,0-1.812Z" transform="translate(-101.174 -101.138)"/></g></g></svg>