<svg xmlns="http://www.w3.org/2000/svg" width="73.954" height="80.676" viewBox="0 0 73.954 80.676"><defs><style>.a{fill:#fff;}</style></defs><path class="a" d="M225.836,166.569a2.555,2.555,0,0,0-.124-.3,3.549,3.549,0,0,0-.205-.494,3.39,3.39,0,0,0-.232-.309,3.2,3.2,0,0,0-.292-.38,47.537,47.537,0,0,1-.649-.521l-33.615-20.169a3.362,3.362,0,0,0-3.462,0L153.64,164.562a2.954,2.954,0,0,0-.353.272,3.845,3.845,0,0,0-.316.249,3.541,3.541,0,0,0-.289.377,2.98,2.98,0,0,0-.235.313,3.541,3.541,0,0,0-.2.481,3.364,3.364,0,0,0-.128.319,3.243,3.243,0,0,0-.118.871v33.615a3.362,3.362,0,0,0,1.63,2.881l33.615,20.169.037.017.037.027a3.256,3.256,0,0,0,.551.225c.077.027.151.071.232.094a3.308,3.308,0,0,0,1.748,0c.081-.024.155-.067.232-.094a3.256,3.256,0,0,0,.551-.225l.037-.027.037-.017,33.615-20.169a3.362,3.362,0,0,0,1.63-2.881V167.443A3.286,3.286,0,0,0,225.836,166.569Zm-36.859-15.376,10.273,6.165-27.081,16.25L161.9,167.443Zm-3.362,64.094-26.892-16.135V173.379l26.892,16.135Zm3.362-31.6L178.7,177.527l27.081-16.25,10.273,6.165Zm30.254,15.463-26.892,16.135V189.515l26.892-16.135Z" transform="translate(-152 -143.913)"/></svg>