<svg xmlns="http://www.w3.org/2000/svg" width="105.519" height="105.519" viewBox="0 0 105.519 105.519"><defs><style>.a{fill:#fff;}.b,.c,.e{fill:none;}.b,.c{stroke:#fff;}.b{stroke-width:4px;stroke-dasharray:122 20;}.c{stroke-width:3px;}.d{stroke:none;}</style></defs><g transform="translate(-1085.24 -343.24)"><g transform="translate(1108 357.859)"><path class="a" d="M5.515,51.621h39.4c.837,0,1.515-.493,1.515-1.1s-.678-1.1-1.515-1.1H43.4V25.2c0-1.216-1.357-2.2-3.031-2.2H35.823c-1.674,0-3.031.986-3.031,2.2V49.419H29.761V31.806c0-1.216-1.357-2.2-3.031-2.2H22.184c-1.674,0-3.031.986-3.031,2.2V49.419H16.123V39.512c0-1.216-1.357-2.2-3.031-2.2H8.546c-1.674,0-3.031.986-3.031,2.2v9.907c-.837,0-1.515.493-1.515,1.1S4.678,51.621,5.515,51.621ZM35.823,25.2h4.546V49.419H35.823Zm-13.638,6.6H26.73V49.419H22.184ZM8.546,39.512h4.546v9.907H8.546Z" transform="translate(0 8.73)"/><path class="a" d="M6.51,47.08c.8,0-1.684,2.171,31.289-29.755v3.039a1.5,1.5,0,1,0,2.98,0c0-7.08,0-6.863-.089-7.263-.715-1.436-.656-1.085-8.85-1.085a1.588,1.588,0,0,0-1.49,1.67,1.588,1.588,0,0,0,1.49,1.67h3.442L5.482,44.141a1.806,1.806,0,0,0-.42,1.88A1.5,1.5,0,0,0,6.51,47.08Z" transform="translate(0.642 0)"/></g><g class="b" transform="translate(1190.76 360.413) rotate(101)"><circle class="d" cx="45" cy="45" r="45"/><circle class="e" cx="45" cy="45" r="43"/></g><g transform="translate(124.275 -122.27) rotate(8)"><line class="c" x2="8" y2="7" transform="translate(1026.5 364.5)"/><path class="c" d="M8,0,7.5.438,7.333.583,0,7" transform="matrix(0.998, -0.07, 0.07, 0.998, 1032.266, 364.788)"/></g><g transform="translate(2071.759 1044.648) rotate(-164)"><line class="c" x2="8" y2="7" transform="translate(1026.5 364.5)"/><path class="c" d="M8,0,7.5.438,7.333.583,0,7" transform="matrix(0.998, -0.07, 0.07, 0.998, 1032.266, 364.788)"/></g></g></svg>