<svg xmlns="http://www.w3.org/2000/svg" width="61.897" height="70.567" viewBox="0 0 61.897 70.567"><defs><style>.a{fill:#fff;}</style></defs><g transform="translate(-4 -11.977)"><path class="a" d="M6.211,64.752H63.687c1.221,0,2.211-.719,2.211-1.606s-.99-1.606-2.211-1.606H61.476V26.212C61.476,24.438,59.5,23,57.055,23H50.423C47.981,23,46,24.438,46,26.212V61.54H41.581V35.847c0-1.774-1.979-3.212-4.421-3.212H30.527c-2.442,0-4.421,1.438-4.421,3.212V61.54H21.685V47.088c0-1.774-1.979-3.212-4.421-3.212H10.632c-2.442,0-4.421,1.438-4.421,3.212V61.54C4.99,61.54,4,62.259,4,63.146S4.99,64.752,6.211,64.752Zm44.212-38.54h6.632V61.54H50.423Zm-19.9,9.635h6.632V61.54H30.527Zm-19.9,11.241h6.632V61.54H10.632Z" transform="translate(0 17.792)"/><path class="a" d="M7.222,63.185c1.174,0-2.456,3.167,45.644-43.407v4.433a2.188,2.188,0,1,0,4.347,0c0-10.328,0-10.011-.13-10.6-1.043-2.095-.956-1.583-12.911-1.583A2.316,2.316,0,0,0,42,14.468,2.316,2.316,0,0,0,44.172,16.9h5.021L5.722,58.9a2.634,2.634,0,0,0-.613,2.742,2.181,2.181,0,0,0,2.113,1.545Z" transform="translate(1.377)"/></g></svg>