<svg xmlns="http://www.w3.org/2000/svg" width="20.318" height="23.163" viewBox="0 0 20.318 23.163"><defs><style>.a{fill:#fff;}</style></defs><g transform="translate(-4 -11.977)"><path class="a" d="M4.726,36.7H23.592c.4,0,.726-.236.726-.527s-.325-.527-.726-.527h-.726v-11.6c0-.582-.65-1.054-1.451-1.054H19.238c-.8,0-1.451.472-1.451,1.054v11.6H16.336V27.217c0-.582-.65-1.054-1.451-1.054H12.708c-.8,0-1.451.472-1.451,1.054v8.434H9.805V30.907c0-.582-.65-1.054-1.451-1.054H6.177c-.8,0-1.451.472-1.451,1.054v4.744c-.4,0-.726.236-.726.527S4.325,36.7,4.726,36.7ZM19.238,24.054h2.177v11.6H19.238Zm-6.531,3.163h2.177v8.434H12.708Zm-6.531,3.69H8.354v4.744H6.177Z" transform="translate(0 -1.564)"/><path class="a" d="M5.7,28.786c.385,0-.806,1.039,14.983-14.248v1.455a.718.718,0,1,0,1.427,0,25.8,25.8,0,0,0-.043-3.478c-.342-.688-.314-.52-4.238-.52a.8.8,0,0,0,0,1.6h1.648L5.209,27.379a.865.865,0,0,0-.2.9.716.716,0,0,0,.694.507Z" transform="translate(-0.192)"/></g></svg>