<svg xmlns="http://www.w3.org/2000/svg" width="71.297" height="60" viewBox="0 0 71.297 60"><defs><style>.a{fill:#fff;}</style></defs><g transform="translate(0 -6.348)"><path class="a" d="M43.025,16.646a12.955,12.955,0,0,1,6.029,9.625,10.452,10.452,0,1,0-6.029-9.625Zm-6.85,21.41A10.456,10.456,0,1,0,25.716,27.6,10.457,10.457,0,0,0,36.175,38.056Zm4.436.713H31.737A13.4,13.4,0,0,0,18.349,52.158V63.009l.028.17.747.234a60.943,60.943,0,0,0,18.2,2.935c9.84,0,15.543-2.805,15.895-2.984l.7-.353H54V52.158A13.4,13.4,0,0,0,40.61,38.769Zm17.3-10.795h-8.8a12.887,12.887,0,0,1-3.977,8.976A15.909,15.909,0,0,1,56.492,52.174v3.344c8.693-.319,13.7-2.782,14.033-2.948l.7-.354H71.3V41.361A13.4,13.4,0,0,0,57.91,27.974Zm-40.083-.712a10.387,10.387,0,0,0,5.561-1.614,12.941,12.941,0,0,1,4.864-8.254c.011-.2.029-.39.029-.587A10.456,10.456,0,1,0,17.827,27.262Zm9.391,9.688a12.894,12.894,0,0,1-3.975-8.926c-.327-.024-.65-.05-.982-.05H13.388A13.4,13.4,0,0,0,0,41.361V52.214l.028.167.747.236a62.773,62.773,0,0,0,15.077,2.834V52.174A15.912,15.912,0,0,1,27.217,36.95Z" transform="translate(0)"/></g></svg>